# xmcd
#
# Track frame offsets:
#	183
#	20460
#	43228
#	63505
#
# Disc length: 1148 seconds
#
# Revision: 0
# Processed by: cddbd v1.5.2PL0 Copyright (c) Steve Scherf et al.
# Submitted via: audiograbber 1.83.01
#
DISCID=31047a04
DTITLE=Jodeci - Cry For You [CDs)
DYEAR=1993
DGENRE=R&B
TTITLE0=Cry For You (Radio Version)
TTITLE1=Cry For You (Extended)
TTITLE2=Cry For You (Instrumental)
TTITLE3=Cry For You (Acapella)
EXTD=
EXTT0=
EXTT1=
EXTT2=
EXTT3=
PLAYORDER=
